<svg width="24" height="27" viewBox="0 0 24 27" fill="none" xmlns="http://www.w3.org/2000/svg">
<path fill-rule="evenodd" clip-rule="evenodd" d="M2.75 6.75C2.75 4.7307 4.20507 3.09375 6 3.09375H12C12.4142 3.09375 12.75 2.71599 12.75 2.25C12.75 1.78401 12.4142 1.40625 12 1.40625H6C3.37665 1.40625 1.25 3.79873 1.25 6.75V20.25C1.25 23.2013 3.37665 25.5938 6 25.5938H18C20.6234 25.5938 22.75 23.2013 22.75 20.25V13.5C22.75 13.034 22.4142 12.6562 22 12.6562C21.5858 12.6562 21.25 13.034 21.25 13.5V20.25C21.25 22.2693 19.7949 23.9062 18 23.9062H6C4.20507 23.9062 2.75 22.2693 2.75 20.25V6.75ZM16.419 3.01171C17.3218 1.9961 18.7855 1.9961 19.6883 3.01171L21.3229 4.85067C22.2257 5.8663 22.2257 7.51295 21.3229 8.52858L19.8736 10.1591C19.7598 10.0957 19.6401 10.0271 19.516 9.95363C18.6806 9.45884 17.6892 8.76439 16.9493 7.93203C16.2095 7.09967 15.5922 5.98438 15.1524 5.04453C15.087 4.90488 15.0261 4.7702 14.9697 4.64219L16.419 3.01171ZM15.8887 9.12527C16.7642 10.1102 17.8777 10.8854 18.7595 11.4124L13.06 17.8243C12.7064 18.2222 12.2475 18.4803 11.7523 18.5599L8.31963 19.1116C7.5568 19.2341 6.90295 18.4986 7.01193 17.6404L7.50231 13.7787C7.57305 13.2216 7.80248 12.7053 8.15616 12.3075L13.8556 5.8956C14.3241 6.88763 15.0131 8.1403 15.8887 9.12527Z" fill="#28303F"/>
</svg>

