<svg width="20" height="20" viewBox="0 0 20 20" fill="none" xmlns="http://www.w3.org/2000/svg">
<path fill-rule="evenodd" clip-rule="evenodd" d="M9.80541 2.94043C6.01372 2.94043 2.93994 6.0142 2.93994 9.8059C2.93994 13.5976 6.01372 16.6714 9.80541 16.6714C13.5971 16.6714 16.6709 13.5976 16.6709 9.8059C16.6709 6.0142 13.5971 2.94043 9.80541 2.94043ZM1.68994 9.8059C1.68994 5.32385 5.32336 1.69043 9.80541 1.69043C14.2875 1.69043 17.9209 5.32385 17.9209 9.8059C17.9209 14.2879 14.2875 17.9214 9.80541 17.9214C5.32336 17.9214 1.68994 14.2879 1.68994 9.8059Z" fill="#111827"/>
<path fill-rule="evenodd" clip-rule="evenodd" d="M14.5727 14.9633C14.8164 14.7189 15.2121 14.7184 15.4565 14.9622L18.3932 17.8912C18.6376 18.135 18.6381 18.5307 18.3944 18.7751C18.1506 19.0195 17.7549 19.02 17.5105 18.7763L14.5738 15.8472C14.3294 15.6034 14.3289 15.2077 14.5727 14.9633Z" fill="#111827"/>
</svg>
